#N canvas 0 50 800 600 12;
#X text 50 10 Simple 4-step MIDI sequencer;
#X obj 50 50 loadbang;
#X msg 50 80 1;
#X obj 50 120 metro 500;
#X obj 50 160 float;
#X obj 120 160 + 1;
#X obj 50 200 mod 4;
#X obj 50 240 select 0 1 2 3;
#X msg 50 280 60;
#X msg 120 280 64;
#X msg 190 280 67;
#X msg 260 280 72;
#X obj 50 320 pack 0 100;
#X obj 50 360 noteout 1;
#X connect 1 0 2 0;
#X connect 2 0 3 0;
#X connect 3 0 4 0;
#X connect 4 0 5 0;
#X connect 4 0 6 0;
#X connect 5 0 4 1;
#X connect 6 0 7 0;
#X connect 7 0 8 0;
#X connect 7 1 9 0;
#X connect 7 2 10 0;
#X connect 7 3 11 0;
#X connect 8 0 12 0;
#X connect 9 0 12 0;
#X connect 10 0 12 0;
#X connect 11 0 12 0;
#X connect 12 0 13 0;
